<svg xmlns="http://www.w3.org/2000/svg" width="128" height="128" viewBox="0 0 128 128">
  <title>PIE CHART</title>
  <g>
    <path d="M114.222,67.736A53.958,53.958,0,1,1,60.264,13.778V67.736Z" fill="#7fb3fa"/>
    <path d="M67.736,6.307a53.958,53.958,0,0,1,53.957,53.957H67.736Z" fill="#f87c68"/>
    <circle cx="60.264" cy="67.736" r="24.199" transform="translate(-30.245 62.453) rotate(-45)" fill="#f4dd45"/>
    <circle cx="60.264" cy="67.736" r="16.6" transform="translate(-30.245 62.453) rotate(-45)" fill="#fcc101"/>
    <path d="M61.626,77.735V79.55H59.045v-1.9a11.624,11.624,0,0,1-6.61-3.036l2.043-2.524a9.709,9.709,0,0,0,4.567,2.439V69c-3.489-.908-5.844-2.156-5.844-5.5,0-3.064,2.355-5.418,5.844-5.844v-1.73h2.581V57.68a10.551,10.551,0,0,1,5.957,2.638l-1.929,2.609A9.266,9.266,0,0,0,61.626,60.8v5.333c3.886.879,6.467,2.212,6.467,5.673C68.093,75.068,65.739,77.451,61.626,77.735ZM59.045,65.452V60.743a2.679,2.679,0,0,0-2.27,2.44C56.775,64.318,57.514,64.913,59.045,65.452Zm5.5,6.694c0-1.3-.908-1.9-2.922-2.5V74.7C63.556,74.472,64.548,73.4,64.548,72.146Z" fill="#f4dd45"/>
  </g>
</svg>
